<svg width="169" height="27" viewBox="0 0 169 27" fill="none" xmlns="http://www.w3.org/2000/svg">
<path d="M161.367 15.0922C161.367 15.5122 161.414 15.9228 161.507 16.3242C161.61 16.7162 161.769 17.0708 161.983 17.3882C162.198 17.7055 162.478 17.9622 162.823 18.1582C163.169 18.3448 163.589 18.4382 164.083 18.4382C164.578 18.4382 164.998 18.3448 165.343 18.1582C165.689 17.9622 165.969 17.7055 166.183 17.3882C166.398 17.0708 166.552 16.7162 166.645 16.3242C166.748 15.9228 166.799 15.5122 166.799 15.0922C166.799 14.6535 166.748 14.2288 166.645 13.8182C166.552 13.4075 166.398 13.0435 166.183 12.7262C165.969 12.3995 165.689 12.1428 165.343 11.9562C164.998 11.7602 164.578 11.6622 164.083 11.6622C163.589 11.6622 163.169 11.7602 162.823 11.9562C162.478 12.1428 162.198 12.3995 161.983 12.7262C161.769 13.0435 161.61 13.4075 161.507 13.8182C161.414 14.2288 161.367 14.6535 161.367 15.0922ZM159.169 15.0922C159.169 14.3455 159.281 13.6548 159.505 13.0202C159.729 12.3762 160.051 11.8162 160.471 11.3402C160.891 10.8642 161.405 10.4908 162.011 10.2202C162.627 9.94949 163.318 9.81416 164.083 9.81416C164.858 9.81416 165.549 9.94949 166.155 10.2202C166.762 10.4908 167.275 10.8642 167.695 11.3402C168.115 11.8162 168.437 12.3762 168.661 13.0202C168.885 13.6548 168.997 14.3455 168.997 15.0922C168.997 15.8202 168.885 16.5015 168.661 17.1362C168.437 17.7615 168.115 18.3075 167.695 18.7742C167.275 19.2408 166.762 19.6095 166.155 19.8802C165.549 20.1415 164.858 20.2722 164.083 20.2722C163.318 20.2722 162.627 20.1415 162.011 19.8802C161.405 19.6095 160.891 19.2408 160.471 18.7742C160.051 18.3075 159.729 17.7615 159.505 17.1362C159.281 16.5015 159.169 15.8202 159.169 15.0922Z" fill="white"/>
<path d="M150.471 15.0922C150.471 15.5122 150.518 15.9228 150.611 16.3242C150.714 16.7162 150.872 17.0708 151.087 17.3882C151.302 17.7055 151.582 17.9622 151.927 18.1582C152.272 18.3448 152.692 18.4382 153.187 18.4382C153.682 18.4382 154.102 18.3448 154.447 18.1582C154.792 17.9622 155.072 17.7055 155.287 17.3882C155.502 17.0708 155.656 16.7162 155.749 16.3242C155.852 15.9228 155.903 15.5122 155.903 15.0922C155.903 14.6535 155.852 14.2288 155.749 13.8182C155.656 13.4075 155.502 13.0435 155.287 12.7262C155.072 12.3995 154.792 12.1428 154.447 11.9562C154.102 11.7602 153.682 11.6622 153.187 11.6622C152.692 11.6622 152.272 11.7602 151.927 11.9562C151.582 12.1428 151.302 12.3995 151.087 12.7262C150.872 13.0435 150.714 13.4075 150.611 13.8182C150.518 14.2288 150.471 14.6535 150.471 15.0922ZM148.273 15.0922C148.273 14.3455 148.385 13.6548 148.609 13.0202C148.833 12.3762 149.155 11.8162 149.575 11.3402C149.995 10.8642 150.508 10.4908 151.115 10.2202C151.731 9.94949 152.422 9.81416 153.187 9.81416C153.962 9.81416 154.652 9.94949 155.259 10.2202C155.866 10.4908 156.379 10.8642 156.799 11.3402C157.219 11.8162 157.541 12.3762 157.765 13.0202C157.989 13.6548 158.101 14.3455 158.101 15.0922C158.101 15.8202 157.989 16.5015 157.765 17.1362C157.541 17.7615 157.219 18.3075 156.799 18.7742C156.379 19.2408 155.866 19.6095 155.259 19.8802C154.652 20.1415 153.962 20.2722 153.187 20.2722C152.422 20.2722 151.731 20.1415 151.115 19.8802C150.508 19.6095 149.995 19.2408 149.575 18.7742C149.155 18.3075 148.833 17.7615 148.609 17.1362C148.385 16.5015 148.273 15.8202 148.273 15.0922Z" fill="white"/>
<path d="M142.36 11.9002H139.364V10.0522H147.554V11.9002H144.558V20.0482H142.36V11.9002Z" fill="white"/>
<path d="M136.126 17.8922H138.324V20.0482H136.126V17.8922Z" fill="white"/>
<path d="M128.073 18.2002H130.033C130.35 18.2002 130.658 18.1488 130.957 18.0462C131.255 17.9435 131.521 17.7755 131.755 17.5422C131.988 17.2995 132.175 16.9868 132.315 16.6042C132.455 16.2215 132.525 15.7548 132.525 15.2042C132.525 14.7002 132.473 14.2475 132.371 13.8462C132.277 13.4355 132.119 13.0855 131.895 12.7962C131.671 12.5068 131.372 12.2875 130.999 12.1382C130.635 11.9795 130.182 11.9002 129.641 11.9002H128.073V18.2002ZM125.875 10.0522H130.187C130.831 10.0522 131.428 10.1548 131.979 10.3602C132.539 10.5655 133.019 10.8735 133.421 11.2842C133.831 11.6948 134.149 12.2082 134.373 12.8242C134.606 13.4402 134.723 14.1635 134.723 14.9942C134.723 15.7222 134.629 16.3942 134.443 17.0102C134.256 17.6262 133.971 18.1582 133.589 18.6062C133.215 19.0542 132.744 19.4088 132.175 19.6702C131.615 19.9222 130.952 20.0482 130.187 20.0482H125.875V10.0522Z" fill="white"/>
<path d="M116.797 10.0522H124.273V11.9002H118.995V14.0422H123.839V15.7502H118.995V18.2002H124.385V20.0482H116.797V10.0522Z" fill="white"/>
<path d="M110.45 11.9002H107.454V10.0522H115.644V11.9002H112.648V20.0482H110.45V11.9002Z" fill="white"/>
<path d="M104.525 13.4122C104.488 13.1602 104.404 12.9315 104.273 12.7262C104.142 12.5115 103.979 12.3248 103.783 12.1662C103.587 12.0075 103.363 11.8862 103.111 11.8022C102.868 11.7088 102.612 11.6622 102.341 11.6622C101.846 11.6622 101.426 11.7602 101.081 11.9562C100.736 12.1428 100.456 12.3995 100.241 12.7262C100.026 13.0435 99.8678 13.4075 99.7651 13.8182C99.6718 14.2288 99.6251 14.6535 99.6251 15.0922C99.6251 15.5122 99.6718 15.9228 99.7651 16.3242C99.8678 16.7162 100.026 17.0708 100.241 17.3882C100.456 17.7055 100.736 17.9622 101.081 18.1582C101.426 18.3448 101.846 18.4382 102.341 18.4382C103.013 18.4382 103.536 18.2328 103.909 17.8222C104.292 17.4115 104.525 16.8702 104.609 16.1982H106.737C106.681 16.8235 106.536 17.3882 106.303 17.8922C106.07 18.3962 105.762 18.8255 105.379 19.1802C104.996 19.5348 104.548 19.8055 104.035 19.9922C103.522 20.1788 102.957 20.2722 102.341 20.2722C101.576 20.2722 100.885 20.1415 100.269 19.8802C99.6625 19.6095 99.1491 19.2408 98.7291 18.7742C98.3091 18.3075 97.9871 17.7615 97.7631 17.1362C97.5391 16.5015 97.4271 15.8202 97.4271 15.0922C97.4271 14.3455 97.5391 13.6548 97.7631 13.0202C97.9871 12.3762 98.3091 11.8162 98.7291 11.3402C99.1491 10.8642 99.6625 10.4908 100.269 10.2202C100.885 9.94949 101.576 9.81416 102.341 9.81416C102.892 9.81416 103.41 9.89349 103.895 10.0522C104.39 10.2108 104.828 10.4442 105.211 10.7522C105.603 11.0508 105.925 11.4242 106.177 11.8722C106.429 12.3202 106.588 12.8335 106.653 13.4122H104.525Z" fill="white"/>
<path d="M88.783 10.0522H96.259V11.9002H90.981V14.0422H95.825V15.7502H90.981V18.2002H96.371V20.0482H88.783V10.0522Z" fill="white"/>
<path d="M78.4061 10.0522H80.5901L84.7621 16.7582H84.7901V10.0522H86.8481V20.0482H84.6501L80.4921 13.3562H80.4641V20.0482H78.4061V10.0522Z" fill="white"/>
<path d="M68.0291 10.0522H70.2131L74.3851 16.7582H74.4131V10.0522H76.4711V20.0482H74.2731L70.1151 13.3562H70.0871V20.0482H68.0291V10.0522Z" fill="white"/>
<path d="M58.8966 15.0922C58.8966 15.5122 58.9433 15.9228 59.0366 16.3242C59.1393 16.7162 59.298 17.0708 59.5126 17.3882C59.7273 17.7055 60.0073 17.9622 60.3526 18.1582C60.698 18.3448 61.118 18.4382 61.6126 18.4382C62.1073 18.4382 62.5273 18.3448 62.8726 18.1582C63.218 17.9622 63.498 17.7055 63.7126 17.3882C63.9273 17.0708 64.0813 16.7162 64.1746 16.3242C64.2773 15.9228 64.3286 15.5122 64.3286 15.0922C64.3286 14.6535 64.2773 14.2288 64.1746 13.8182C64.0813 13.4075 63.9273 13.0435 63.7126 12.7262C63.498 12.3995 63.218 12.1428 62.8726 11.9562C62.5273 11.7602 62.1073 11.6622 61.6126 11.6622C61.118 11.6622 60.698 11.7602 60.3526 11.9562C60.0073 12.1428 59.7273 12.3995 59.5126 12.7262C59.298 13.0435 59.1393 13.4075 59.0366 13.8182C58.9433 14.2288 58.8966 14.6535 58.8966 15.0922ZM56.6986 15.0922C56.6986 14.3455 56.8106 13.6548 57.0346 13.0202C57.2586 12.3762 57.5806 11.8162 58.0006 11.3402C58.4206 10.8642 58.934 10.4908 59.5406 10.2202C60.1566 9.94949 60.8473 9.81416 61.6126 9.81416C62.3873 9.81416 63.078 9.94949 63.6846 10.2202C64.2913 10.4908 64.8046 10.8642 65.2246 11.3402C65.6446 11.8162 65.9666 12.3762 66.1906 13.0202C66.4146 13.6548 66.5266 14.3455 66.5266 15.0922C66.5266 15.8202 66.4146 16.5015 66.1906 17.1362C65.9666 17.7615 65.6446 18.3075 65.2246 18.7742C64.8046 19.2408 64.2913 19.6095 63.6846 19.8802C63.078 20.1415 62.3873 20.2722 61.6126 20.2722C60.8473 20.2722 60.1566 20.1415 59.5406 19.8802C58.934 19.6095 58.4206 19.2408 58.0006 18.7742C57.5806 18.3075 57.2586 17.7615 57.0346 17.1362C56.8106 16.5015 56.6986 15.8202 56.6986 15.0922Z" fill="white"/>
<path d="M53.4197 13.4122C53.3823 13.1602 53.2983 12.9315 53.1677 12.7262C53.037 12.5115 52.8737 12.3248 52.6777 12.1662C52.4817 12.0075 52.2577 11.8862 52.0057 11.8022C51.763 11.7088 51.5063 11.6622 51.2357 11.6622C50.741 11.6622 50.321 11.7602 49.9757 11.9562C49.6303 12.1428 49.3503 12.3995 49.1357 12.7262C48.921 13.0435 48.7623 13.4075 48.6597 13.8182C48.5663 14.2288 48.5197 14.6535 48.5197 15.0922C48.5197 15.5122 48.5663 15.9228 48.6597 16.3242C48.7623 16.7162 48.921 17.0708 49.1357 17.3882C49.3503 17.7055 49.6303 17.9622 49.9757 18.1582C50.321 18.3448 50.741 18.4382 51.2357 18.4382C51.9077 18.4382 52.4303 18.2328 52.8037 17.8222C53.1863 17.4115 53.4197 16.8702 53.5037 16.1982H55.6317C55.5757 16.8235 55.431 17.3882 55.1977 17.8922C54.9643 18.3962 54.6563 18.8255 54.2737 19.1802C53.891 19.5348 53.443 19.8055 52.9297 19.9922C52.4164 20.1788 51.8517 20.2722 51.2357 20.2722C50.4703 20.2722 49.7797 20.1415 49.1637 19.8802C48.557 19.6095 48.0437 19.2408 47.6237 18.7742C47.2037 18.3075 46.8817 17.7615 46.6577 17.1362C46.4337 16.5015 46.3217 15.8202 46.3217 15.0922C46.3217 14.3455 46.4337 13.6548 46.6577 13.0202C46.8817 12.3762 47.2037 11.8162 47.6237 11.3402C48.0437 10.8642 48.557 10.4908 49.1637 10.2202C49.7797 9.94949 50.4703 9.81416 51.2357 9.81416C51.7863 9.81416 52.3043 9.89349 52.7897 10.0522C53.2843 10.2108 53.723 10.4442 54.1057 10.7522C54.4977 11.0508 54.8197 11.4242 55.0717 11.8722C55.3237 12.3202 55.4823 12.8335 55.5477 13.4122H53.4197Z" fill="white"/>
<path d="M18.822 12.5877C21.1692 16.6532 26.2614 18.1075 30.1958 15.836C34.1301 13.5645 35.4167 8.4274 33.0695 4.36192C30.7223 0.29643 25.6301 -1.15789 21.6958 1.1136C17.7614 3.3851 16.4748 8.52224 18.822 12.5877Z" fill="url(#paint0_linear_245_103)"/>
<path d="M15.973 14.2337C13.6258 10.1682 8.42726 8.7753 4.36177 11.1225C0.296284 13.4697 -1.09666 18.6682 1.25055 22.7337C3.59776 26.7992 8.79628 28.1922 12.8618 25.8449C16.9273 23.4977 18.3202 18.2992 15.973 14.2337Z" fill="url(#paint1_linear_245_103)"/>
<defs>
<linearGradient id="paint0_linear_245_103" x1="84.5538" y1="0.0410156" x2="84.5538" y2="26.9851" gradientUnits="userSpaceOnUse">
<stop stop-color="white" stop-opacity="0.2"/>
<stop offset="1" stop-color="white"/>
</linearGradient>
<linearGradient id="paint1_linear_245_103" x1="12.8612" y1="25.8438" x2="4.36122" y2="11.1213" gradientUnits="userSpaceOnUse">
<stop stop-color="white" stop-opacity="0.2"/>
<stop offset="1" stop-color="white"/>
</linearGradient>
</defs>
</svg>
