<?xml version="1.0" standalone="no"?>
<!DOCTYPE svg PUBLIC "-//W3C//DTD SVG 20010904//EN"
 "http://www.w3.org/TR/2001/REC-SVG-20010904/DTD/svg10.dtd">
<svg version="1.0" xmlns="http://www.w3.org/2000/svg"
 width="900.000000pt" height="900.000000pt" viewBox="0 0 900.000000 900.000000"
 preserveAspectRatio="xMidYMid meet">
<metadata>
Created by potrace 1.14, written by Peter Selinger 2001-2017
</metadata>
<g transform="translate(0.000000,900.000000) scale(0.100000,-0.100000)"
fill="#000000" stroke="none">
<path d="M4238 8995 c-1 -2 -43 -6 -93 -10 -105 -7 -132 -10 -200 -19 -27 -4
-68 -9 -90 -11 -22 -3 -76 -12 -120 -20 -44 -8 -91 -16 -105 -19 -216 -39
-585 -149 -814 -242 -153 -63 -402 -179 -416 -194 -3 -3 -23 -14 -45 -25 -186
-92 -564 -348 -745 -505 -150 -129 -337 -310 -450 -435 -354 -392 -647 -860
-840 -1344 -113 -285 -208 -626 -259 -931 -17 -98 -19 -113 -26 -176 -4 -33
-9 -70 -11 -84 -30 -196 -24 -825 11 -1045 2 -16 7 -48 10 -70 19 -130 40
-245 67 -360 16 -71 31 -134 32 -140 11 -46 66 -234 76 -260 5 -11 18 -49 30
-85 45 -135 135 -351 209 -500 186 -372 391 -681 656 -986 59 -68 349 -360
396 -399 13 -11 53 -45 89 -76 71 -60 274 -218 301 -234 9 -5 68 -44 130 -86
286 -190 658 -375 974 -484 44 -15 89 -31 100 -36 21 -9 298 -87 332 -93 11
-3 65 -14 119 -26 55 -12 108 -23 119 -25 11 -1 47 -7 80 -14 61 -11 71 -13
180 -26 33 -3 71 -9 85 -11 185 -30 807 -24 1040 10 19 3 55 8 80 11 40 5 99
15 180 29 59 10 304 67 372 86 40 12 96 27 123 35 71 20 286 96 380 136 44 18
82 34 85 34 37 6 367 176 522 268 342 205 607 413 893 701 578 583 978 1294
1173 2086 22 91 43 179 46 195 2 17 11 68 20 115 18 103 19 114 41 285 26 205
26 855 0 955 -2 8 -6 46 -10 83 -3 37 -8 76 -10 85 -1 9 -6 39 -9 65 -6 44
-17 104 -31 167 -3 14 -8 39 -10 55 -3 17 -12 57 -21 90 -8 33 -16 70 -19 83
-2 12 -6 26 -9 30 -3 5 -7 21 -10 36 -33 183 -204 625 -350 906 -83 161 -263
456 -320 527 -8 10 -48 63 -89 118 -41 55 -113 145 -158 200 -89 107 -365 387
-463 470 -32 28 -64 55 -70 60 -21 20 -231 181 -266 205 -19 13 -37 27 -40 30
-9 11 -232 155 -331 213 -137 80 -392 205 -544 267 -71 29 -139 56 -150 61
-82 33 -431 141 -497 153 -13 2 -68 14 -123 26 -108 23 -230 45 -310 56 -27 3
-58 8 -67 9 -9 2 -49 7 -90 10 -40 4 -89 9 -108 11 -42 6 -627 14 -632 9z"/>
</g>
</svg>
